<svg version="1.1" xmlns="http://www.w3.org/2000/svg" viewBox="0 0 472 455" width="1416" height="1365">
  <!-- svg-source:excalidraw -->
  
  <defs>
    <style>
      @font-face {
        font-family: "Virgil";
        src: url("https://excalidraw.com/Virgil.woff2");
      }
      @font-face {
        font-family: "Cascadia";
        src: url("https://excalidraw.com/Cascadia.woff2");
      }
    </style>
  </defs>
  <g stroke-linecap="round" transform="translate(10 10) rotate(0 226 217.5)"><path d="M108.75 0 L343.25 0 L368.74 1.7 L380.21 3.82 L390.83 6.8 L400.6 10.62 L409.52 15.29 L417.59 20.82 L424.81 27.19 L431.18 34.41 L436.71 42.48 L441.38 51.4 L445.2 61.17 L448.18 71.79 L451.58 95.58 L451.58 339.42 L448.18 363.21 L445.2 373.83 L441.38 383.6 L436.71 392.52 L431.18 400.59 L424.81 407.81 L417.59 414.18 L409.52 419.71 L400.6 424.38 L390.83 428.2 L380.21 431.18 L356.42 434.58 L95.58 434.58 L71.79 431.18 L61.17 428.2 L51.4 424.38 L42.48 419.71 L34.41 414.18 L27.19 407.81 L20.82 400.59 L15.29 392.52 L10.62 383.6 L6.8 373.83 L3.82 363.21 L0.42 339.42 L0 108.75 L0.42 95.58 L3.82 71.79 L6.8 61.17 L10.62 51.4 L15.29 42.48 L20.82 34.41 L27.19 27.19 L34.41 20.82 L42.48 15.29 L51.4 10.62 L61.17 6.8 L71.79 3.82 L83.26 1.7 L108.75 0" stroke="none" stroke-width="0" fill="#fff"></path><path d="M108.75 0 M108.75 0 C192.44 0, 276.13 0, 343.25 0 M108.75 0 C188.44 0, 268.13 0, 343.25 0 M343.25 0 C415.75 0, 452 36.25, 452 108.75 M343.25 0 C415.75 0, 452 36.25, 452 108.75 M452 108.75 C452 153.19, 452 197.62, 452 326.25 M452 108.75 C452 173.91, 452 239.06, 452 326.25 M452 326.25 C452 398.75, 415.75 435, 343.25 435 M452 326.25 C452 398.75, 415.75 435, 343.25 435 M343.25 435 C270.92 435, 198.59 435, 108.75 435 M343.25 435 C283.84 435, 224.42 435, 108.75 435 M108.75 435 C36.25 435, 0 398.75, 0 326.25 M108.75 435 C36.25 435, 0 398.75, 0 326.25 M0 326.25 C0 280.74, 0 235.24, 0 108.75 M0 326.25 C0 256.94, 0 187.62, 0 108.75 M0 108.75 C0 36.25, 36.25 0, 108.75 0 M0 108.75 C0 36.25, 36.25 0, 108.75 0" stroke="#000" stroke-width="4" fill="none"></path></g><g stroke-linecap="round" transform="translate(149.16415438290915 49.85604806513834) rotate(0 37.83572354677847 38.94390921025226)"><path d="M75.67 38.94 C75.67 40.97, 75.51 43.03, 75.21 45.04 C74.9 47.04, 74.43 49.05, 73.82 50.98 C73.21 52.91, 72.44 54.81, 71.55 56.62 C70.65 58.43, 69.61 60.19, 68.45 61.83 C67.29 63.48, 65.98 65.05, 64.59 66.48 C63.19 67.92, 61.67 69.26, 60.08 70.45 C58.48 71.64, 56.77 72.72, 55.01 73.64 C53.25 74.57, 51.4 75.35, 49.53 75.98 C47.65 76.61, 45.7 77.09, 43.75 77.41 C41.81 77.73, 39.81 77.89, 37.84 77.89 C35.86 77.89, 33.87 77.73, 31.92 77.41 C29.97 77.09, 28.02 76.61, 26.14 75.98 C24.27 75.35, 22.42 74.57, 20.66 73.64 C18.9 72.72, 17.19 71.64, 15.6 70.45 C14 69.26, 12.48 67.92, 11.08 66.48 C9.69 65.05, 8.39 63.48, 7.23 61.83 C6.07 60.19, 5.02 58.43, 4.12 56.62 C3.23 54.81, 2.46 52.91, 1.85 50.98 C1.24 49.05, 0.77 47.04, 0.47 45.04 C0.16 43.03, 0 40.97, 0 38.94 C0 36.91, 0.16 34.86, 0.47 32.85 C0.77 30.85, 1.24 28.84, 1.85 26.91 C2.46 24.98, 3.23 23.07, 4.12 21.26 C5.02 19.45, 6.07 17.7, 7.23 16.05 C8.39 14.41, 9.69 12.84, 11.08 11.41 C12.48 9.97, 14 8.63, 15.6 7.44 C17.19 6.24, 18.9 5.17, 20.66 4.24 C22.42 3.32, 24.27 2.53, 26.14 1.91 C28.02 1.28, 29.97 0.8, 31.92 0.48 C33.87 0.16, 35.86 0, 37.84 0 C39.81 0, 41.81 0.16, 43.75 0.48 C45.7 0.8, 47.65 1.28, 49.53 1.91 C51.4 2.53, 53.25 3.32, 55.01 4.24 C56.77 5.17, 58.48 6.24, 60.08 7.44 C61.67 8.63, 63.19 9.97, 64.59 11.41 C65.98 12.84, 67.29 14.41, 68.45 16.05 C69.61 17.7, 70.65 19.45, 71.55 21.26 C72.44 23.07, 73.21 24.98, 73.82 26.91 C74.43 28.84, 74.9 30.85, 75.21 32.85 C75.51 34.86, 75.59 37.93, 75.67 38.94 C75.75 39.96, 75.75 37.93, 75.67 38.94" stroke="none" stroke-width="0" fill="#90ee90"></path><path d="M75.67 38.94 C75.67 40.97, 75.51 43.03, 75.21 45.04 C74.9 47.04, 74.43 49.05, 73.82 50.98 C73.21 52.91, 72.44 54.81, 71.55 56.62 C70.65 58.43, 69.61 60.19, 68.45 61.83 C67.29 63.48, 65.98 65.05, 64.59 66.48 C63.19 67.92, 61.67 69.26, 60.08 70.45 C58.48 71.64, 56.77 72.72, 55.01 73.64 C53.25 74.57, 51.4 75.35, 49.53 75.98 C47.65 76.61, 45.7 77.09, 43.75 77.41 C41.81 77.73, 39.81 77.89, 37.84 77.89 C35.86 77.89, 33.87 77.73, 31.92 77.41 C29.97 77.09, 28.02 76.61, 26.14 75.98 C24.27 75.35, 22.42 74.57, 20.66 73.64 C18.9 72.72, 17.19 71.64, 15.6 70.45 C14 69.26, 12.48 67.92, 11.08 66.48 C9.69 65.05, 8.39 63.48, 7.23 61.83 C6.07 60.19, 5.02 58.43, 4.12 56.62 C3.23 54.81, 2.46 52.91, 1.85 50.98 C1.24 49.05, 0.77 47.04, 0.47 45.04 C0.16 43.03, 0 40.97, 0 38.94 C0 36.91, 0.16 34.86, 0.47 32.85 C0.77 30.85, 1.24 28.84, 1.85 26.91 C2.46 24.98, 3.23 23.07, 4.12 21.26 C5.02 19.45, 6.07 17.7, 7.23 16.05 C8.39 14.41, 9.69 12.84, 11.08 11.41 C12.48 9.97, 14 8.63, 15.6 7.44 C17.19 6.24, 18.9 5.17, 20.66 4.24 C22.42 3.32, 24.27 2.53, 26.14 1.91 C28.02 1.28, 29.97 0.8, 31.92 0.48 C33.87 0.16, 35.86 0, 37.84 0 C39.81 0, 41.81 0.16, 43.75 0.48 C45.7 0.8, 47.65 1.28, 49.53 1.91 C51.4 2.53, 53.25 3.32, 55.01 4.24 C56.77 5.17, 58.48 6.24, 60.08 7.44 C61.67 8.63, 63.19 9.97, 64.59 11.41 C65.98 12.84, 67.29 14.41, 68.45 16.05 C69.61 17.7, 70.65 19.45, 71.55 21.26 C72.44 23.07, 73.21 24.98, 73.82 26.91 C74.43 28.84, 74.9 30.85, 75.21 32.85 C75.51 34.86, 75.59 37.93, 75.67 38.94 C75.75 39.96, 75.75 37.93, 75.67 38.94" stroke="#000000" stroke-width="4" fill="none"></path></g><g stroke-linecap="round" transform="translate(362.76425203915915 313.05612130732584) rotate(0 37.83572354677847 38.943909210252286)"><path d="M75.67 38.94 C75.67 40.97, 75.51 43.03, 75.21 45.04 C74.9 47.04, 74.43 49.05, 73.82 50.98 C73.21 52.91, 72.44 54.81, 71.55 56.62 C70.65 58.43, 69.61 60.19, 68.45 61.83 C67.29 63.48, 65.98 65.05, 64.59 66.48 C63.19 67.92, 61.67 69.26, 60.08 70.45 C58.48 71.64, 56.77 72.72, 55.01 73.64 C53.25 74.57, 51.4 75.35, 49.53 75.98 C47.65 76.61, 45.7 77.09, 43.75 77.41 C41.81 77.73, 39.81 77.89, 37.84 77.89 C35.86 77.89, 33.87 77.73, 31.92 77.41 C29.97 77.09, 28.02 76.61, 26.14 75.98 C24.27 75.35, 22.42 74.57, 20.66 73.64 C18.9 72.72, 17.19 71.64, 15.6 70.45 C14 69.26, 12.48 67.92, 11.08 66.48 C9.69 65.05, 8.39 63.48, 7.23 61.83 C6.07 60.19, 5.02 58.43, 4.12 56.62 C3.23 54.81, 2.46 52.91, 1.85 50.98 C1.24 49.05, 0.77 47.04, 0.47 45.04 C0.16 43.03, 0 40.97, 0 38.94 C0 36.91, 0.16 34.86, 0.47 32.85 C0.77 30.85, 1.24 28.84, 1.85 26.91 C2.46 24.98, 3.23 23.07, 4.12 21.26 C5.02 19.45, 6.07 17.7, 7.23 16.05 C8.39 14.41, 9.69 12.84, 11.08 11.41 C12.48 9.97, 14 8.63, 15.6 7.44 C17.19 6.24, 18.9 5.17, 20.66 4.24 C22.42 3.32, 24.27 2.53, 26.14 1.91 C28.02 1.28, 29.97 0.8, 31.92 0.48 C33.87 0.16, 35.86 0, 37.84 0 C39.81 0, 41.81 0.16, 43.75 0.48 C45.7 0.8, 47.65 1.28, 49.53 1.91 C51.4 2.53, 53.25 3.32, 55.01 4.24 C56.77 5.17, 58.48 6.24, 60.08 7.44 C61.67 8.63, 63.19 9.97, 64.59 11.41 C65.98 12.84, 67.29 14.41, 68.45 16.05 C69.61 17.7, 70.65 19.45, 71.55 21.26 C72.44 23.07, 73.21 24.98, 73.82 26.91 C74.43 28.84, 74.9 30.85, 75.21 32.85 C75.51 34.86, 75.59 37.93, 75.67 38.94 C75.75 39.96, 75.75 37.93, 75.67 38.94" stroke="none" stroke-width="0" fill="#6495ed"></path><path d="M75.67 38.94 C75.67 40.97, 75.51 43.03, 75.21 45.04 C74.9 47.04, 74.43 49.05, 73.82 50.98 C73.21 52.91, 72.44 54.81, 71.55 56.62 C70.65 58.43, 69.61 60.19, 68.45 61.83 C67.29 63.48, 65.98 65.05, 64.59 66.48 C63.19 67.92, 61.67 69.26, 60.08 70.45 C58.48 71.64, 56.77 72.72, 55.01 73.64 C53.25 74.57, 51.4 75.35, 49.53 75.98 C47.65 76.61, 45.7 77.09, 43.75 77.41 C41.81 77.73, 39.81 77.89, 37.84 77.89 C35.86 77.89, 33.87 77.73, 31.92 77.41 C29.97 77.09, 28.02 76.61, 26.14 75.98 C24.27 75.35, 22.42 74.57, 20.66 73.64 C18.9 72.72, 17.19 71.64, 15.6 70.45 C14 69.26, 12.48 67.92, 11.08 66.48 C9.69 65.05, 8.39 63.48, 7.23 61.83 C6.07 60.19, 5.02 58.43, 4.12 56.62 C3.23 54.81, 2.46 52.91, 1.85 50.98 C1.24 49.05, 0.77 47.04, 0.47 45.04 C0.16 43.03, 0 40.97, 0 38.94 C0 36.91, 0.16 34.86, 0.47 32.85 C0.77 30.85, 1.24 28.84, 1.85 26.91 C2.46 24.98, 3.23 23.07, 4.12 21.26 C5.02 19.45, 6.07 17.7, 7.23 16.05 C8.39 14.41, 9.69 12.84, 11.08 11.41 C12.48 9.97, 14 8.63, 15.6 7.44 C17.19 6.24, 18.9 5.17, 20.66 4.24 C22.42 3.32, 24.27 2.53, 26.14 1.91 C28.02 1.28, 29.97 0.8, 31.92 0.48 C33.87 0.16, 35.86 0, 37.84 0 C39.81 0, 41.81 0.16, 43.75 0.48 C45.7 0.8, 47.65 1.28, 49.53 1.91 C51.4 2.53, 53.25 3.32, 55.01 4.24 C56.77 5.17, 58.48 6.24, 60.08 7.44 C61.67 8.63, 63.19 9.97, 64.59 11.41 C65.98 12.84, 67.29 14.41, 68.45 16.05 C69.61 17.7, 70.65 19.45, 71.55 21.26 C72.44 23.07, 73.21 24.98, 73.82 26.91 C74.43 28.84, 74.9 30.85, 75.21 32.85 C75.51 34.86, 75.59 37.93, 75.67 38.94 C75.75 39.96, 75.75 37.93, 75.67 38.94" stroke="#000000" stroke-width="4" fill="none"></path></g><g stroke-linecap="round" transform="translate(298.76412996884665 137.8561091002946) rotate(0 37.83572354677847 38.94390921025226)"><path d="M75.67 38.94 C75.67 40.97, 75.51 43.03, 75.21 45.04 C74.9 47.04, 74.43 49.05, 73.82 50.98 C73.21 52.91, 72.44 54.81, 71.55 56.62 C70.65 58.43, 69.61 60.19, 68.45 61.83 C67.29 63.48, 65.98 65.05, 64.59 66.48 C63.19 67.92, 61.67 69.26, 60.08 70.45 C58.48 71.64, 56.77 72.72, 55.01 73.64 C53.25 74.57, 51.4 75.35, 49.53 75.98 C47.65 76.61, 45.7 77.09, 43.75 77.41 C41.81 77.73, 39.81 77.89, 37.84 77.89 C35.86 77.89, 33.87 77.73, 31.92 77.41 C29.97 77.09, 28.02 76.61, 26.14 75.98 C24.27 75.35, 22.42 74.57, 20.66 73.64 C18.9 72.72, 17.19 71.64, 15.6 70.45 C14 69.26, 12.48 67.92, 11.08 66.48 C9.69 65.05, 8.39 63.48, 7.23 61.83 C6.07 60.19, 5.02 58.43, 4.12 56.62 C3.23 54.81, 2.46 52.91, 1.85 50.98 C1.24 49.05, 0.77 47.04, 0.47 45.04 C0.16 43.03, 0 40.97, 0 38.94 C0 36.91, 0.16 34.86, 0.47 32.85 C0.77 30.85, 1.24 28.84, 1.85 26.91 C2.46 24.98, 3.23 23.07, 4.12 21.26 C5.02 19.45, 6.07 17.7, 7.23 16.05 C8.39 14.41, 9.69 12.84, 11.08 11.41 C12.48 9.97, 14 8.63, 15.6 7.44 C17.19 6.24, 18.9 5.17, 20.66 4.24 C22.42 3.32, 24.27 2.53, 26.14 1.91 C28.02 1.28, 29.97 0.8, 31.92 0.48 C33.87 0.16, 35.86 0, 37.84 0 C39.81 0, 41.81 0.16, 43.75 0.48 C45.7 0.8, 47.65 1.28, 49.53 1.91 C51.4 2.53, 53.25 3.32, 55.01 4.24 C56.77 5.17, 58.48 6.24, 60.08 7.44 C61.67 8.63, 63.19 9.97, 64.59 11.41 C65.98 12.84, 67.29 14.41, 68.45 16.05 C69.61 17.7, 70.65 19.45, 71.55 21.26 C72.44 23.07, 73.21 24.98, 73.82 26.91 C74.43 28.84, 74.9 30.85, 75.21 32.85 C75.51 34.86, 75.59 37.93, 75.67 38.94 C75.75 39.96, 75.75 37.93, 75.67 38.94" stroke="none" stroke-width="0" fill="#f08080"></path><path d="M75.67 38.94 C75.67 40.97, 75.51 43.03, 75.21 45.04 C74.9 47.04, 74.43 49.05, 73.82 50.98 C73.21 52.91, 72.44 54.81, 71.55 56.62 C70.65 58.43, 69.61 60.19, 68.45 61.83 C67.29 63.48, 65.98 65.05, 64.59 66.48 C63.19 67.92, 61.67 69.26, 60.08 70.45 C58.48 71.64, 56.77 72.72, 55.01 73.64 C53.25 74.57, 51.4 75.35, 49.53 75.98 C47.65 76.61, 45.7 77.09, 43.75 77.41 C41.81 77.73, 39.81 77.89, 37.84 77.89 C35.86 77.89, 33.87 77.73, 31.92 77.41 C29.97 77.09, 28.02 76.61, 26.14 75.98 C24.27 75.35, 22.42 74.57, 20.66 73.64 C18.9 72.72, 17.19 71.64, 15.6 70.45 C14 69.26, 12.48 67.92, 11.08 66.48 C9.69 65.05, 8.39 63.48, 7.23 61.83 C6.07 60.19, 5.02 58.43, 4.12 56.62 C3.23 54.81, 2.46 52.91, 1.85 50.98 C1.24 49.05, 0.77 47.04, 0.47 45.04 C0.16 43.03, 0 40.97, 0 38.94 C0 36.91, 0.16 34.86, 0.47 32.85 C0.77 30.85, 1.24 28.84, 1.85 26.91 C2.46 24.98, 3.23 23.07, 4.12 21.26 C5.02 19.45, 6.07 17.7, 7.23 16.05 C8.39 14.41, 9.69 12.84, 11.08 11.41 C12.48 9.97, 14 8.63, 15.6 7.44 C17.19 6.24, 18.9 5.17, 20.66 4.24 C22.42 3.32, 24.27 2.53, 26.14 1.91 C28.02 1.28, 29.97 0.8, 31.92 0.48 C33.87 0.16, 35.86 0, 37.84 0 C39.81 0, 41.81 0.16, 43.75 0.48 C45.7 0.8, 47.65 1.28, 49.53 1.91 C51.4 2.53, 53.25 3.32, 55.01 4.24 C56.77 5.17, 58.48 6.24, 60.08 7.44 C61.67 8.63, 63.19 9.97, 64.59 11.41 C65.98 12.84, 67.29 14.41, 68.45 16.05 C69.61 17.7, 70.65 19.45, 71.55 21.26 C72.44 23.07, 73.21 24.98, 73.82 26.91 C74.43 28.84, 74.9 30.85, 75.21 32.85 C75.51 34.86, 75.59 37.93, 75.67 38.94 C75.75 39.96, 75.75 37.93, 75.67 38.94" stroke="#000000" stroke-width="4" fill="none"></path></g><g stroke-linecap="round" transform="translate(349.16415438290915 218.6560358581071) rotate(0 37.83572354677847 38.94390921025226)"><path d="M75.67 38.94 C75.67 40.97, 75.51 43.03, 75.21 45.04 C74.9 47.04, 74.43 49.05, 73.82 50.98 C73.21 52.91, 72.44 54.81, 71.55 56.62 C70.65 58.43, 69.61 60.19, 68.45 61.83 C67.29 63.48, 65.98 65.05, 64.59 66.48 C63.19 67.92, 61.67 69.26, 60.08 70.45 C58.48 71.64, 56.77 72.72, 55.01 73.64 C53.25 74.57, 51.4 75.35, 49.53 75.98 C47.65 76.61, 45.7 77.09, 43.75 77.41 C41.81 77.73, 39.81 77.89, 37.84 77.89 C35.86 77.89, 33.87 77.73, 31.92 77.41 C29.97 77.09, 28.02 76.61, 26.14 75.98 C24.27 75.35, 22.42 74.57, 20.66 73.64 C18.9 72.72, 17.19 71.64, 15.6 70.45 C14 69.26, 12.48 67.92, 11.08 66.48 C9.69 65.05, 8.39 63.48, 7.23 61.83 C6.07 60.19, 5.02 58.43, 4.12 56.62 C3.23 54.81, 2.46 52.91, 1.85 50.98 C1.24 49.05, 0.77 47.04, 0.47 45.04 C0.16 43.03, 0 40.97, 0 38.94 C0 36.91, 0.16 34.86, 0.47 32.85 C0.77 30.85, 1.24 28.84, 1.85 26.91 C2.46 24.98, 3.23 23.07, 4.12 21.26 C5.02 19.45, 6.07 17.7, 7.23 16.05 C8.39 14.41, 9.69 12.84, 11.08 11.41 C12.48 9.97, 14 8.63, 15.6 7.44 C17.19 6.24, 18.9 5.17, 20.66 4.24 C22.42 3.32, 24.27 2.53, 26.14 1.91 C28.02 1.28, 29.97 0.8, 31.92 0.48 C33.87 0.16, 35.86 0, 37.84 0 C39.81 0, 41.81 0.16, 43.75 0.48 C45.7 0.8, 47.65 1.28, 49.53 1.91 C51.4 2.53, 53.25 3.32, 55.01 4.24 C56.77 5.17, 58.48 6.24, 60.08 7.44 C61.67 8.63, 63.19 9.97, 64.59 11.41 C65.98 12.84, 67.29 14.41, 68.45 16.05 C69.61 17.7, 70.65 19.45, 71.55 21.26 C72.44 23.07, 73.21 24.98, 73.82 26.91 C74.43 28.84, 74.9 30.85, 75.21 32.85 C75.51 34.86, 75.59 37.93, 75.67 38.94 C75.75 39.96, 75.75 37.93, 75.67 38.94" stroke="none" stroke-width="0" fill="#6495ed"></path><path d="M75.67 38.94 C75.67 40.97, 75.51 43.03, 75.21 45.04 C74.9 47.04, 74.43 49.05, 73.82 50.98 C73.21 52.91, 72.44 54.81, 71.55 56.62 C70.65 58.43, 69.61 60.19, 68.45 61.83 C67.29 63.48, 65.98 65.05, 64.59 66.48 C63.19 67.92, 61.67 69.26, 60.08 70.45 C58.48 71.64, 56.77 72.72, 55.01 73.64 C53.25 74.57, 51.4 75.35, 49.53 75.98 C47.65 76.61, 45.7 77.09, 43.75 77.41 C41.81 77.73, 39.81 77.89, 37.84 77.89 C35.86 77.89, 33.87 77.73, 31.92 77.41 C29.97 77.09, 28.02 76.61, 26.14 75.98 C24.27 75.35, 22.42 74.57, 20.66 73.64 C18.9 72.72, 17.19 71.64, 15.6 70.45 C14 69.26, 12.48 67.92, 11.08 66.48 C9.69 65.05, 8.39 63.48, 7.23 61.83 C6.07 60.19, 5.02 58.43, 4.12 56.62 C3.23 54.81, 2.46 52.91, 1.85 50.98 C1.24 49.05, 0.77 47.04, 0.47 45.04 C0.16 43.03, 0 40.97, 0 38.94 C0 36.91, 0.16 34.86, 0.47 32.85 C0.77 30.85, 1.24 28.84, 1.85 26.91 C2.46 24.98, 3.23 23.07, 4.12 21.26 C5.02 19.45, 6.07 17.7, 7.23 16.05 C8.39 14.41, 9.69 12.84, 11.08 11.41 C12.48 9.97, 14 8.63, 15.6 7.44 C17.19 6.24, 18.9 5.17, 20.66 4.24 C22.42 3.32, 24.27 2.53, 26.14 1.91 C28.02 1.28, 29.97 0.8, 31.92 0.48 C33.87 0.16, 35.86 0, 37.84 0 C39.81 0, 41.81 0.16, 43.75 0.48 C45.7 0.8, 47.65 1.28, 49.53 1.91 C51.4 2.53, 53.25 3.32, 55.01 4.24 C56.77 5.17, 58.48 6.24, 60.08 7.44 C61.67 8.63, 63.19 9.97, 64.59 11.41 C65.98 12.84, 67.29 14.41, 68.45 16.05 C69.61 17.7, 70.65 19.45, 71.55 21.26 C72.44 23.07, 73.21 24.98, 73.82 26.91 C74.43 28.84, 74.9 30.85, 75.21 32.85 C75.51 34.86, 75.59 37.93, 75.67 38.94 C75.75 39.96, 75.75 37.93, 75.67 38.94" stroke="#000000" stroke-width="4" fill="none"></path></g><g stroke-linecap="round" transform="translate(228.7643130743154 82.25610299677896) rotate(0 37.83572354677847 38.94390921025226)"><path d="M75.67 38.94 C75.67 40.97, 75.51 43.03, 75.21 45.04 C74.9 47.04, 74.43 49.05, 73.82 50.98 C73.21 52.91, 72.44 54.81, 71.55 56.62 C70.65 58.43, 69.61 60.19, 68.45 61.83 C67.29 63.48, 65.98 65.05, 64.59 66.48 C63.19 67.92, 61.67 69.26, 60.08 70.45 C58.48 71.64, 56.77 72.72, 55.01 73.64 C53.25 74.57, 51.4 75.35, 49.53 75.98 C47.65 76.61, 45.7 77.09, 43.75 77.41 C41.81 77.73, 39.81 77.89, 37.84 77.89 C35.86 77.89, 33.87 77.73, 31.92 77.41 C29.97 77.09, 28.02 76.61, 26.14 75.98 C24.27 75.35, 22.42 74.57, 20.66 73.64 C18.9 72.72, 17.19 71.64, 15.6 70.45 C14 69.26, 12.48 67.92, 11.08 66.48 C9.69 65.05, 8.39 63.48, 7.23 61.83 C6.07 60.19, 5.02 58.43, 4.12 56.62 C3.23 54.81, 2.46 52.91, 1.85 50.98 C1.24 49.05, 0.77 47.04, 0.47 45.04 C0.16 43.03, 0 40.97, 0 38.94 C0 36.91, 0.16 34.86, 0.47 32.85 C0.77 30.85, 1.24 28.84, 1.85 26.91 C2.46 24.98, 3.23 23.07, 4.12 21.26 C5.02 19.45, 6.07 17.7, 7.23 16.05 C8.39 14.41, 9.69 12.84, 11.08 11.41 C12.48 9.97, 14 8.63, 15.6 7.44 C17.19 6.24, 18.9 5.17, 20.66 4.24 C22.42 3.32, 24.27 2.53, 26.14 1.91 C28.02 1.28, 29.97 0.8, 31.92 0.48 C33.87 0.16, 35.86 0, 37.84 0 C39.81 0, 41.81 0.16, 43.75 0.48 C45.7 0.8, 47.65 1.28, 49.53 1.91 C51.4 2.53, 53.25 3.32, 55.01 4.24 C56.77 5.17, 58.48 6.24, 60.08 7.44 C61.67 8.63, 63.19 9.97, 64.59 11.41 C65.98 12.84, 67.29 14.41, 68.45 16.05 C69.61 17.7, 70.65 19.45, 71.55 21.26 C72.44 23.07, 73.21 24.98, 73.82 26.91 C74.43 28.84, 74.9 30.85, 75.21 32.85 C75.51 34.86, 75.59 37.93, 75.67 38.94 C75.75 39.96, 75.75 37.93, 75.67 38.94" stroke="none" stroke-width="0" fill="#90ee90"></path><path d="M75.67 38.94 C75.67 40.97, 75.51 43.03, 75.21 45.04 C74.9 47.04, 74.43 49.05, 73.82 50.98 C73.21 52.91, 72.44 54.81, 71.55 56.62 C70.65 58.43, 69.61 60.19, 68.45 61.83 C67.29 63.48, 65.98 65.05, 64.59 66.48 C63.19 67.92, 61.67 69.26, 60.08 70.45 C58.48 71.64, 56.77 72.72, 55.01 73.64 C53.25 74.57, 51.4 75.35, 49.53 75.98 C47.65 76.61, 45.7 77.09, 43.75 77.41 C41.81 77.73, 39.81 77.89, 37.84 77.89 C35.86 77.89, 33.87 77.73, 31.92 77.41 C29.97 77.09, 28.02 76.61, 26.14 75.98 C24.27 75.35, 22.42 74.57, 20.66 73.64 C18.9 72.72, 17.19 71.64, 15.6 70.45 C14 69.26, 12.48 67.92, 11.08 66.48 C9.69 65.05, 8.39 63.48, 7.23 61.83 C6.07 60.19, 5.02 58.43, 4.12 56.62 C3.23 54.81, 2.46 52.91, 1.85 50.98 C1.24 49.05, 0.77 47.04, 0.47 45.04 C0.16 43.03, 0 40.97, 0 38.94 C0 36.91, 0.16 34.86, 0.47 32.85 C0.77 30.85, 1.24 28.84, 1.85 26.91 C2.46 24.98, 3.23 23.07, 4.12 21.26 C5.02 19.45, 6.07 17.7, 7.23 16.05 C8.39 14.41, 9.69 12.84, 11.08 11.41 C12.48 9.97, 14 8.63, 15.6 7.44 C17.19 6.24, 18.9 5.17, 20.66 4.24 C22.42 3.32, 24.27 2.53, 26.14 1.91 C28.02 1.28, 29.97 0.8, 31.92 0.48 C33.87 0.16, 35.86 0, 37.84 0 C39.81 0, 41.81 0.16, 43.75 0.48 C45.7 0.8, 47.65 1.28, 49.53 1.91 C51.4 2.53, 53.25 3.32, 55.01 4.24 C56.77 5.17, 58.48 6.24, 60.08 7.44 C61.67 8.63, 63.19 9.97, 64.59 11.41 C65.98 12.84, 67.29 14.41, 68.45 16.05 C69.61 17.7, 70.65 19.45, 71.55 21.26 C72.44 23.07, 73.21 24.98, 73.82 26.91 C74.43 28.84, 74.9 30.85, 75.21 32.85 C75.51 34.86, 75.59 37.93, 75.67 38.94 C75.75 39.96, 75.75 37.93, 75.67 38.94" stroke="#000000" stroke-width="4" fill="none"></path></g><g stroke-linecap="round" transform="translate(61.01837233671631 42.351641553262624) rotate(0 37.83572354677847 38.943909210252244)"><path d="M75.67 38.94 C75.67 40.97, 75.51 43.03, 75.21 45.04 C74.9 47.04, 74.43 49.05, 73.82 50.98 C73.21 52.91, 72.44 54.81, 71.55 56.62 C70.65 58.43, 69.61 60.19, 68.45 61.83 C67.29 63.48, 65.98 65.05, 64.59 66.48 C63.19 67.92, 61.67 69.26, 60.08 70.45 C58.48 71.64, 56.77 72.72, 55.01 73.64 C53.25 74.57, 51.4 75.35, 49.53 75.98 C47.65 76.61, 45.7 77.09, 43.75 77.41 C41.81 77.73, 39.81 77.89, 37.84 77.89 C35.86 77.89, 33.87 77.73, 31.92 77.41 C29.97 77.09, 28.02 76.61, 26.14 75.98 C24.27 75.35, 22.42 74.57, 20.66 73.64 C18.9 72.72, 17.19 71.64, 15.6 70.45 C14 69.26, 12.48 67.92, 11.08 66.48 C9.69 65.05, 8.39 63.48, 7.23 61.83 C6.07 60.19, 5.02 58.43, 4.12 56.62 C3.23 54.81, 2.46 52.91, 1.85 50.98 C1.24 49.05, 0.77 47.04, 0.47 45.04 C0.16 43.03, 0 40.97, 0 38.94 C0 36.91, 0.16 34.86, 0.47 32.85 C0.77 30.85, 1.24 28.84, 1.85 26.91 C2.46 24.98, 3.23 23.07, 4.12 21.26 C5.02 19.45, 6.07 17.7, 7.23 16.05 C8.39 14.41, 9.69 12.84, 11.08 11.41 C12.48 9.97, 14 8.63, 15.6 7.44 C17.19 6.24, 18.9 5.17, 20.66 4.24 C22.42 3.32, 24.27 2.53, 26.14 1.91 C28.02 1.28, 29.97 0.8, 31.92 0.48 C33.87 0.16, 35.86 0, 37.84 0 C39.81 0, 41.81 0.16, 43.75 0.48 C45.7 0.8, 47.65 1.28, 49.53 1.91 C51.4 2.53, 53.25 3.32, 55.01 4.24 C56.77 5.17, 58.48 6.24, 60.08 7.44 C61.67 8.63, 63.19 9.97, 64.59 11.41 C65.98 12.84, 67.29 14.41, 68.45 16.05 C69.61 17.7, 70.65 19.45, 71.55 21.26 C72.44 23.07, 73.21 24.98, 73.82 26.91 C74.43 28.84, 74.9 30.85, 75.21 32.85 C75.51 34.86, 75.59 37.93, 75.67 38.94 C75.75 39.96, 75.75 37.93, 75.67 38.94" stroke="none" stroke-width="0" fill="#6495ed"></path><path d="M75.67 38.94 C75.67 40.97, 75.51 43.03, 75.21 45.04 C74.9 47.04, 74.43 49.05, 73.82 50.98 C73.21 52.91, 72.44 54.81, 71.55 56.62 C70.65 58.43, 69.61 60.19, 68.45 61.83 C67.29 63.48, 65.98 65.05, 64.59 66.48 C63.19 67.92, 61.67 69.26, 60.08 70.45 C58.48 71.64, 56.77 72.72, 55.01 73.64 C53.25 74.57, 51.4 75.35, 49.53 75.98 C47.65 76.61, 45.7 77.09, 43.75 77.41 C41.81 77.73, 39.81 77.89, 37.84 77.89 C35.86 77.89, 33.87 77.73, 31.92 77.41 C29.97 77.09, 28.02 76.61, 26.14 75.98 C24.27 75.35, 22.42 74.57, 20.66 73.64 C18.9 72.72, 17.19 71.64, 15.6 70.45 C14 69.26, 12.48 67.92, 11.08 66.48 C9.69 65.05, 8.39 63.48, 7.23 61.83 C6.07 60.19, 5.02 58.43, 4.12 56.62 C3.23 54.81, 2.46 52.91, 1.85 50.98 C1.24 49.05, 0.77 47.04, 0.47 45.04 C0.16 43.03, 0 40.97, 0 38.94 C0 36.91, 0.16 34.86, 0.47 32.85 C0.77 30.85, 1.24 28.84, 1.85 26.91 C2.46 24.98, 3.23 23.07, 4.12 21.26 C5.02 19.45, 6.07 17.7, 7.23 16.05 C8.39 14.41, 9.69 12.84, 11.08 11.41 C12.48 9.97, 14 8.63, 15.6 7.44 C17.19 6.24, 18.9 5.17, 20.66 4.24 C22.42 3.32, 24.27 2.53, 26.14 1.91 C28.02 1.28, 29.97 0.8, 31.92 0.48 C33.87 0.16, 35.86 0, 37.84 0 C39.81 0, 41.81 0.16, 43.75 0.48 C45.7 0.8, 47.65 1.28, 49.53 1.91 C51.4 2.53, 53.25 3.32, 55.01 4.24 C56.77 5.17, 58.48 6.24, 60.08 7.44 C61.67 8.63, 63.19 9.97, 64.59 11.41 C65.98 12.84, 67.29 14.41, 68.45 16.05 C69.61 17.7, 70.65 19.45, 71.55 21.26 C72.44 23.07, 73.21 24.98, 73.82 26.91 C74.43 28.84, 74.9 30.85, 75.21 32.85 C75.51 34.86, 75.59 37.93, 75.67 38.94 C75.75 39.96, 75.75 37.93, 75.67 38.94" stroke="#000000" stroke-width="4" fill="none"></path></g><g transform="translate(114.79998779296875 178.10704408842935) rotate(0 49 131.5)"><text x="0" y="185" font-family="Virgil, Segoe UI Emoji" font-size="208.1703121572646px" fill="#000" text-anchor="start" style="white-space: pre;" direction="ltr">?</text></g></svg>