<svg version="1.1" xmlns="http://www.w3.org/2000/svg" viewBox="0 0 307 107" width="307" height="107">
  <!-- svg-source:excalidraw -->
  
  <defs>
    <style>
      @font-face {
        font-family: "Virgil";
        src: url("https://excalidraw.com/Virgil.woff2");
      }
      @font-face {
        font-family: "Cascadia";
        src: url("https://excalidraw.com/Cascadia.woff2");
      }
    </style>
  </defs>
  <g transform="translate(28 32) rotate(0 11.5 17)" stroke="none"><path fill="#000000" d="M -0.73,-1.10 Q -0.73,-1.10 1.59,-3.21 3.92,-5.32 6.79,-7.01 9.66,-8.69 12.46,-9.78 15.26,-10.86 18.07,-11.10 20.87,-11.33 22.10,-9.83 23.33,-8.33 23.07,-6.81 22.80,-5.28 19.81,-2.20 16.82,0.87 14.23,3.44 11.64,6.01 9.67,7.96 7.71,9.91 9.65,10.83 11.59,11.74 13.82,12.95 16.04,14.16 18.35,16.28 20.67,18.40 22.12,21.08 23.57,23.76 23.36,27.38 23.15,31.01 21.41,34.24 19.67,37.46 16.36,40.11 13.05,42.77 10.82,43.56 8.59,44.36 5.58,42.54 2.57,40.72 2.40,40.60 2.22,40.48 2.09,40.31 1.97,40.14 1.90,39.94 1.83,39.73 1.84,39.52 1.84,39.31 1.91,39.11 1.98,38.91 2.11,38.74 2.24,38.57 2.41,38.45 2.59,38.34 2.80,38.28 3.00,38.23 3.21,38.24 3.43,38.25 3.62,38.33 3.82,38.41 3.98,38.55 4.14,38.69 4.25,38.88 4.36,39.06 4.40,39.27 4.44,39.47 4.42,39.69 4.39,39.90 4.30,40.09 4.21,40.28 4.06,40.43 3.92,40.59 3.73,40.68 3.54,40.78 3.33,40.81 3.12,40.85 2.91,40.81 2.70,40.77 2.51,40.67 2.33,40.57 2.18,40.42 2.04,40.26 1.95,40.07 1.86,39.87 1.84,39.66 1.82,39.45 1.87,39.24 1.92,39.04 2.03,38.86 2.14,38.67 2.30,38.54 2.47,38.40 2.66,38.33 2.86,38.25 3.07,38.24 3.29,38.23 3.49,38.29 3.69,38.35 3.69,38.35 3.69,38.35 6.72,38.39 9.75,38.43 12.39,36.49 15.03,34.55 16.48,32.37 17.94,30.19 18.46,27.87 18.99,25.55 18.12,23.72 17.26,21.88 15.47,20.13 13.68,18.38 11.66,17.26 9.64,16.14 8.18,15.48 6.71,14.81 5.12,14.12 3.54,13.43 2.86,12.09 2.19,10.76 3.14,8.53 4.10,6.29 6.07,4.33 8.04,2.37 10.64,-0.19 13.25,-2.76 16.25,-5.11 19.25,-7.45 18.09,-6.86 16.93,-6.28 14.45,-5.43 11.97,-4.58 9.20,-3.07 6.42,-1.57 3.58,-0.23 0.73,1.10 0.59,1.18 0.45,1.25 0.29,1.28 0.13,1.32 -0.02,1.32 -0.18,1.31 -0.33,1.27 -0.49,1.23 -0.63,1.16 -0.77,1.08 -0.89,0.97 -1.01,0.86 -1.10,0.73 -1.18,0.59 -1.24,0.44 -1.29,0.29 -1.31,0.13 -1.33,-0.02 -1.30,-0.18 -1.28,-0.33 -1.22,-0.48 -1.16,-0.63 -1.07,-0.76 -0.98,-0.89 -0.86,-1.00 -0.73,-1.10 -0.73,-1.10 L -0.73,-1.10 Z"></path></g><g transform="translate(40 10) rotate(0 -15 42.5)" stroke="none"><path fill="#000000" d="M 1.45,1.16 Q 1.45,1.16 -0.67,4.17 -2.81,7.17 -4.22,9.70 -5.64,12.24 -7.28,19.40 -8.92,26.56 -11.37,37.48 -13.82,48.40 -15.75,55.68 -17.67,62.96 -19.07,67.26 -20.48,71.56 -21.65,75.08 -22.83,78.61 -25.93,81.31 -29.03,84.02 -29.24,84.07 -29.44,84.11 -29.65,84.09 -29.87,84.07 -30.06,83.99 -30.25,83.90 -30.41,83.75 -30.57,83.61 -30.67,83.42 -30.77,83.24 -30.81,83.03 -30.84,82.82 -30.81,82.61 -30.78,82.40 -30.68,82.21 -30.58,82.02 -30.43,81.87 -30.28,81.72 -30.09,81.63 -29.89,81.54 -29.68,81.52 -29.47,81.49 -29.26,81.53 -29.06,81.58 -28.87,81.69 -28.69,81.79 -28.55,81.95 -28.41,82.11 -28.33,82.31 -28.25,82.51 -28.24,82.72 -28.22,82.93 -28.28,83.14 -28.33,83.34 -28.45,83.52 -28.57,83.70 -28.73,83.83 -28.90,83.96 -29.10,84.03 -29.30,84.10 -29.51,84.10 -29.73,84.10 -29.93,84.04 -30.13,83.97 -30.30,83.84 -30.47,83.72 -30.59,83.54 -30.71,83.37 -30.77,83.16 -30.83,82.96 -30.82,82.75 -30.81,82.53 -30.74,82.34 -30.66,82.14 -30.53,81.97 -30.39,81.81 -30.21,81.70 -30.03,81.59 -30.03,81.59 -30.03,81.59 -28.87,79.28 -27.71,76.98 -26.55,73.46 -25.40,69.94 -24.02,65.79 -22.64,61.64 -20.71,54.46 -18.79,47.27 -16.25,36.33 -13.72,25.39 -11.74,17.64 -9.76,9.89 -8.07,7.11 -6.38,4.32 -3.92,1.57 -1.45,-1.16 -1.29,-1.32 -1.13,-1.47 -0.94,-1.59 -0.74,-1.70 -0.53,-1.77 -0.31,-1.83 -0.09,-1.84 0.13,-1.85 0.35,-1.81 0.57,-1.77 0.77,-1.67 0.98,-1.58 1.15,-1.44 1.33,-1.30 1.46,-1.12 1.60,-0.94 1.69,-0.74 1.78,-0.53 1.82,-0.31 1.86,-0.09 1.84,0.13 1.83,0.35 1.76,0.56 1.69,0.78 1.57,0.97 1.45,1.16 1.45,1.16 L 1.45,1.16 Z"></path></g><g transform="translate(59 40) rotate(0 17 -2)" stroke="none"><path fill="#000000" d="M -0.61,-1.23 Q -0.61,-1.23 0.32,-2.21 1.27,-3.19 2.67,-4.40 4.07,-5.61 4.98,-6.49 5.88,-7.37 6.21,-8.84 6.53,-10.32 5.00,-9.71 3.47,-9.10 2.34,-7.36 1.21,-5.61 0.70,-4.39 0.19,-3.17 -0.27,-0.51 -0.74,2.14 -0.68,4.25 -0.61,6.36 -0.11,7.55 0.39,8.74 1.17,9.50 1.94,10.26 2.83,9.61 3.71,8.96 5.57,7.01 7.43,5.07 9.17,2.78 10.91,0.49 11.87,-1.52 12.84,-3.55 13.56,-5.03 14.27,-6.52 14.24,-6.92 14.22,-7.32 14.34,-7.52 14.47,-7.72 14.64,-7.88 14.81,-8.04 15.01,-8.15 15.22,-8.27 15.44,-8.33 15.67,-8.40 15.90,-8.40 16.13,-8.41 16.36,-8.36 16.59,-8.31 16.80,-8.21 17.01,-8.11 17.19,-7.96 17.37,-7.81 17.51,-7.62 17.65,-7.43 17.74,-7.22 17.83,-7.00 17.87,-6.77 17.90,-6.54 17.88,-6.31 17.86,-6.07 17.79,-5.85 17.71,-5.63 16.86,-2.59 16.01,0.45 15.79,2.89 15.56,5.33 15.43,6.67 15.30,8.00 14.62,6.36 13.93,4.73 15.15,2.46 16.37,0.20 17.41,-2.10 18.44,-4.40 19.79,-6.91 21.14,-9.42 22.29,-11.36 23.44,-13.31 24.17,-14.69 24.90,-16.07 26.05,-17.08 27.20,-18.09 28.85,-17.51 30.49,-16.92 30.91,-15.77 31.33,-14.61 31.41,-12.67 31.49,-10.74 31.54,-7.93 31.58,-5.13 31.87,-3.26 32.16,-1.40 32.52,-0.15 32.88,1.08 31.52,1.02 30.15,0.97 31.19,0.17 32.23,-0.61 34.14,-3.76 36.05,-6.91 36.17,-7.09 36.29,-7.26 36.46,-7.39 36.63,-7.52 36.83,-7.59 37.03,-7.66 37.24,-7.66 37.45,-7.66 37.65,-7.59 37.86,-7.52 38.03,-7.39 38.20,-7.27 38.32,-7.09 38.44,-6.92 38.49,-6.71 38.55,-6.51 38.54,-6.29 38.53,-6.08 38.45,-5.88 38.37,-5.69 38.23,-5.52 38.10,-5.36 37.92,-5.25 37.73,-5.14 37.53,-5.10 37.32,-5.05 37.11,-5.07 36.90,-5.09 36.70,-5.18 36.51,-5.27 36.36,-5.42 36.20,-5.56 36.10,-5.75 36.00,-5.94 35.97,-6.15 35.93,-6.36 35.97,-6.57 36.00,-6.78 36.10,-6.96 36.20,-7.15 36.35,-7.30 36.50,-7.45 36.70,-7.54 36.89,-7.63 37.10,-7.65 37.31,-7.67 37.52,-7.63 37.73,-7.58 37.91,-7.47 38.09,-7.36 38.23,-7.20 38.37,-7.04 38.45,-6.84 38.53,-6.65 38.54,-6.43 38.55,-6.22 38.49,-6.02 38.44,-5.81 38.44,-5.81 38.44,-5.81 36.95,-1.55 35.45,2.71 33.96,3.96 32.47,5.21 30.18,3.92 27.89,2.64 27.42,1.00 26.96,-0.64 26.65,-2.86 26.35,-5.09 26.35,-7.85 26.36,-10.61 26.54,-12.89 26.72,-15.18 27.77,-14.50 28.81,-13.83 28.00,-12.45 27.20,-11.06 26.07,-9.21 24.95,-7.36 23.66,-4.98 22.37,-2.61 21.25,-0.18 20.14,2.23 19.01,4.32 17.87,6.41 16.71,8.44 15.55,10.48 14.38,10.65 13.22,10.83 12.14,9.33 11.06,7.82 11.18,6.34 11.30,4.86 11.66,2.02 12.03,-0.81 12.75,-2.91 13.47,-5.01 13.84,-6.17 14.22,-7.32 14.34,-7.52 14.47,-7.72 14.64,-7.88 14.81,-8.04 15.01,-8.15 15.22,-8.27 15.44,-8.33 15.67,-8.40 15.90,-8.40 16.13,-8.41 16.36,-8.36 16.59,-8.31 16.80,-8.21 17.01,-8.11 17.19,-7.96 17.37,-7.81 17.51,-7.62 17.65,-7.43 17.74,-7.22 17.83,-7.00 17.87,-6.77 17.90,-6.54 17.88,-6.31 17.86,-6.07 17.79,-5.85 17.71,-5.63 17.64,-5.33 17.57,-5.04 16.84,-3.52 16.10,-2.00 15.00,0.32 13.90,2.64 12.13,5.19 10.37,7.73 8.04,10.40 5.72,13.07 3.51,13.80 1.30,14.52 -0.31,13.85 -1.93,13.17 -3.04,11.86 -4.15,10.55 -4.84,8.55 -5.53,6.56 -5.56,3.89 -5.59,1.23 -4.95,-1.94 -4.30,-5.12 -3.53,-6.80 -2.75,-8.49 -0.86,-10.88 1.02,-13.27 3.19,-14.21 5.36,-15.16 6.70,-14.96 8.03,-14.76 9.20,-13.95 10.36,-13.14 10.90,-11.77 11.44,-10.40 11.29,-8.75 11.15,-7.10 10.21,-5.51 9.27,-3.91 8.26,-2.96 7.25,-2.02 6.21,-1.14 5.18,-0.27 4.25,0.31 3.32,0.89 1.97,1.06 0.61,1.23 0.46,1.29 0.30,1.34 0.13,1.36 -0.02,1.38 -0.19,1.36 -0.35,1.33 -0.51,1.27 -0.66,1.21 -0.80,1.11 -0.93,1.01 -1.04,0.89 -1.15,0.76 -1.22,0.61 -1.30,0.46 -1.34,0.30 -1.37,0.13 -1.37,-0.02 -1.37,-0.19 -1.32,-0.35 -1.28,-0.51 -1.20,-0.66 -1.12,-0.80 -1.01,-0.93 -0.89,-1.05 -0.75,-1.14 -0.61,-1.23 -0.61,-1.23 L -0.61,-1.23 Z"></path></g><g transform="translate(104 12) rotate(0 -1 4.5)" stroke="none"><path fill="#000000" d="M 1.73,0.49 Q 1.73,0.49 1.23,2.52 0.74,4.56 0.09,6.44 -0.55,8.32 -0.62,8.52 -0.69,8.72 -0.82,8.89 -0.94,9.06 -1.12,9.17 -1.30,9.29 -1.50,9.35 -1.71,9.40 -1.92,9.39 -2.13,9.38 -2.33,9.30 -2.53,9.22 -2.69,9.08 -2.85,8.94 -2.96,8.76 -3.06,8.57 -3.11,8.37 -3.15,8.16 -3.13,7.95 -3.10,7.74 -3.01,7.54 -2.92,7.35 -2.78,7.20 -2.63,7.05 -2.44,6.95 -2.25,6.85 -2.04,6.82 -1.83,6.78 -1.62,6.82 -1.41,6.85 -1.23,6.96 -1.04,7.06 -0.89,7.21 -0.75,7.37 -0.66,7.56 -0.57,7.75 -0.55,7.97 -0.53,8.18 -0.58,8.38 -0.62,8.59 -0.74,8.77 -0.85,8.95 -1.01,9.09 -1.17,9.23 -1.37,9.30 -1.57,9.38 -1.78,9.39 -1.99,9.40 -2.20,9.34 -2.40,9.28 -2.58,9.16 -2.75,9.04 -2.88,8.87 -3.01,8.70 -3.07,8.50 -3.14,8.30 -3.14,8.09 -3.14,7.87 -3.14,7.88 -3.14,7.88 -3.09,5.68 -3.04,3.48 -2.38,1.49 -1.73,-0.49 -1.65,-0.69 -1.56,-0.89 -1.43,-1.07 -1.30,-1.24 -1.13,-1.38 -0.96,-1.52 -0.77,-1.61 -0.57,-1.70 -0.36,-1.75 -0.15,-1.79 0.06,-1.78 0.28,-1.78 0.49,-1.72 0.70,-1.66 0.88,-1.55 1.07,-1.44 1.23,-1.29 1.39,-1.14 1.51,-0.96 1.62,-0.77 1.69,-0.57 1.76,-0.36 1.78,-0.15 1.80,0.06 1.76,0.28 1.73,0.49 1.73,0.49 L 1.73,0.49 Z"></path></g><g transform="translate(115 12) rotate(0 -2 12.5)" stroke="none"><path fill="#000000" d="M 0.85,1.14 Q 0.85,1.14 -0.07,2.28 -1.00,3.42 -1.94,5.31 -2.88,7.21 -3.41,8.25 -3.94,9.29 -2.89,10.57 -1.83,11.85 0.30,13.58 2.44,15.31 3.29,16.28 4.13,17.25 4.46,18.99 4.80,20.73 3.68,22.49 2.56,24.25 0.93,25.26 -0.68,26.27 -3.92,25.34 -7.16,24.41 -7.33,24.28 -7.49,24.14 -7.61,23.96 -7.72,23.78 -7.77,23.58 -7.82,23.37 -7.80,23.16 -7.79,22.95 -7.70,22.75 -7.62,22.56 -7.48,22.40 -7.33,22.24 -7.15,22.14 -6.96,22.04 -6.75,22.00 -6.54,21.96 -6.33,21.99 -6.12,22.02 -5.93,22.11 -5.74,22.20 -5.59,22.36 -5.44,22.51 -5.35,22.70 -5.26,22.89 -5.23,23.10 -5.20,23.31 -5.24,23.52 -5.28,23.73 -5.39,23.91 -5.49,24.10 -5.65,24.24 -5.81,24.38 -6.00,24.46 -6.20,24.54 -6.41,24.56 -6.62,24.58 -6.83,24.53 -7.04,24.47 -7.21,24.36 -7.39,24.24 -7.53,24.08 -7.66,23.91 -7.73,23.71 -7.80,23.51 -7.81,23.30 -7.81,23.09 -7.75,22.89 -7.69,22.68 -7.56,22.51 -7.44,22.34 -7.27,22.21 -7.09,22.09 -6.89,22.03 -6.69,21.97 -6.47,21.97 -6.26,21.98 -6.06,22.05 -5.86,22.13 -5.86,22.13 -5.86,22.13 -4.66,21.79 -3.46,21.45 -2.10,20.38 -0.74,19.30 -2.92,17.41 -5.10,15.52 -6.37,14.23 -7.65,12.95 -8.08,11.79 -8.52,10.62 -8.47,9.02 -8.42,7.41 -7.86,6.23 -7.29,5.05 -6.46,3.60 -5.63,2.16 -4.61,1.09 -3.59,0.02 -2.22,-0.56 -0.85,-1.14 -0.70,-1.23 -0.55,-1.31 -0.39,-1.36 -0.22,-1.41 -0.05,-1.42 0.11,-1.42 0.28,-1.39 0.45,-1.35 0.61,-1.28 0.76,-1.20 0.89,-1.10 1.03,-0.99 1.13,-0.85 1.24,-0.71 1.30,-0.55 1.37,-0.39 1.40,-0.22 1.43,-0.05 1.41,0.11 1.40,0.28 1.34,0.45 1.29,0.61 1.20,0.76 1.10,0.90 0.98,1.02 0.85,1.14 0.85,1.14 L 0.85,1.14 Z"></path></g><g transform="translate(64 54) rotate(0 116.5 21.5)"><text x="0" y="35" font-family="Cascadia, Segoe UI Emoji" font-size="36px" fill="#000000" text-anchor="start" style="white-space: pre;" direction="ltr">PASAPALABRA</text></g></svg>